<svg width="139" height="116" viewBox="0 0 139 116" fill="none" xmlns="http://www.w3.org/2000/svg">
<path d="M5.43179 65.467C2.43674 65.467 0 67.8579 0 70.7961C0 73.7343 2.43674 76.1249 5.43179 76.1249C8.42684 76.1249 10.8636 73.7346 10.8636 70.7961C10.8636 67.8576 8.42714 65.467 5.43179 65.467Z" fill="url(#paint0_linear)"/>
<path d="M133.624 29.6506C130.629 29.6506 128.192 32.0412 128.192 34.9798C128.192 37.9184 130.629 40.309 133.624 40.309C136.619 40.309 139.056 37.9184 139.056 34.9798C139.056 32.0412 136.619 29.6506 133.624 29.6506Z" fill="url(#paint1_linear)"/>
<path d="M86.2283 86.3273C80.1027 84.2391 75.6916 78.5179 75.6916 71.8002C75.6916 70.4701 75.8648 69.1786 76.1898 67.9468L58.2231 56.2339C56.9122 57.2187 55.439 58.0031 53.8503 58.5447V115.202H86.2286V86.3273H86.2283Z" fill="url(#paint2_linear)"/>
<path d="M33.4866 47.5102C33.2198 46.3874 33.0742 45.2193 33.0742 44.0176C33.0742 35.5394 40.0977 28.6416 48.7305 28.6416C57.3635 28.6416 64.387 35.5391 64.387 44.0176C64.387 45.3479 64.2138 46.6391 63.8887 47.871L81.8555 59.5841C84.491 57.6043 87.7808 56.4248 91.3475 56.4248C94.1343 56.4248 96.7511 57.1467 99.0202 58.4055L119.146 40.8761C118.386 39.0618 117.967 37.071 117.967 34.9798C117.967 28.3536 122.166 22.7295 128.149 20.5614V0H10.9064V56.378C12.4942 56.9535 13.9549 57.7745 15.2462 58.7909L33.4866 47.5102Z" fill="url(#paint3_linear)"/>
<path d="M48.7307 38.6885C45.7357 38.6885 43.299 41.079 43.299 44.0175C43.299 46.956 45.7357 49.3466 48.7307 49.3466C51.7258 49.3466 54.1625 46.956 54.1625 44.0175C54.1625 41.079 51.7258 38.6885 48.7307 38.6885Z" fill="url(#paint4_linear)"/>
<path d="M105.811 65.9165C106.578 67.7299 107.004 69.717 107.004 71.8003C107.004 78.5232 102.586 84.2482 96.4528 86.3323V115.202H128.149V49.3983C127.378 49.119 126.638 48.7813 125.931 48.3925L105.811 65.9165Z" fill="url(#paint5_linear)"/>
<path d="M43.6255 58.5496C41.9108 57.9669 40.3309 57.1005 38.9437 56.0061L20.6854 67.2982C20.9484 68.4216 21.0887 69.592 21.0887 70.7964C21.0887 77.4225 16.8896 83.0466 10.9067 85.2147V115.202H43.6258V58.5496H43.6255Z" fill="url(#paint6_linear)"/>
<path d="M91.3478 66.4714C88.3527 66.4714 85.916 68.8617 85.916 71.8002C85.916 74.7387 88.3527 77.1293 91.3478 77.1293C94.3428 77.1293 96.7796 74.7387 96.7796 71.8002C96.7796 68.8617 94.3431 66.4714 91.3478 66.4714Z" fill="url(#paint7_linear)"/>
<defs>
<linearGradient id="paint0_linear" x1="2.06935e-10" y1="70.6519" x2="10.8636" y2="70.6519" gradientUnits="userSpaceOnUse">
<stop stop-color="#67E1E1"/>
<stop offset="1" stop-color="#9CEB98"/>
</linearGradient>
<linearGradient id="paint1_linear" x1="128.192" y1="34.8358" x2="139.056" y2="34.8358" gradientUnits="userSpaceOnUse">
<stop stop-color="#67E1E1"/>
<stop offset="1" stop-color="#9CEB98"/>
</linearGradient>
<linearGradient id="paint2_linear" x1="53.8503" y1="84.921" x2="86.2286" y2="84.921" gradientUnits="userSpaceOnUse">
<stop stop-color="#67E1E1"/>
<stop offset="1" stop-color="#9CEB98"/>
</linearGradient>
<linearGradient id="paint3_linear" x1="10.9064" y1="28.9869" x2="128.149" y2="28.9869" gradientUnits="userSpaceOnUse">
<stop stop-color="#67E1E1"/>
<stop offset="1" stop-color="#9CEB98"/>
</linearGradient>
<linearGradient id="paint4_linear" x1="43.299" y1="43.8735" x2="54.1625" y2="43.8735" gradientUnits="userSpaceOnUse">
<stop stop-color="#67E1E1"/>
<stop offset="1" stop-color="#9CEB98"/>
</linearGradient>
<linearGradient id="paint5_linear" x1="96.4528" y1="80.8943" x2="128.149" y2="80.8943" gradientUnits="userSpaceOnUse">
<stop stop-color="#67E1E1"/>
<stop offset="1" stop-color="#9CEB98"/>
</linearGradient>
<linearGradient id="paint6_linear" x1="10.9067" y1="84.804" x2="43.6258" y2="84.804" gradientUnits="userSpaceOnUse">
<stop stop-color="#67E1E1"/>
<stop offset="1" stop-color="#9CEB98"/>
</linearGradient>
<linearGradient id="paint7_linear" x1="85.916" y1="71.6563" x2="96.7796" y2="71.6563" gradientUnits="userSpaceOnUse">
<stop stop-color="#67E1E1"/>
<stop offset="1" stop-color="#9CEB98"/>
</linearGradient>
</defs>
</svg>
